<svg width="148" height="63" viewBox="0 0 148 63" fill="none" xmlns="http://www.w3.org/2000/svg">
<g filter="url(#filter0_dd_24736_105132)">
<rect x="12" y="5" width="85" height="34" rx="8" fill="#101828"/>
<path d="M29.758 19.6719C29.7182 19.2997 29.5506 19.0099 29.2551 18.8026C28.9625 18.5952 28.5819 18.4915 28.1131 18.4915C27.7836 18.4915 27.5009 18.5412 27.2651 18.6406C27.0293 18.7401 26.8489 18.875 26.7239 19.0455C26.5989 19.2159 26.535 19.4105 26.5321 19.6293C26.5321 19.8111 26.5733 19.9687 26.6557 20.1023C26.7409 20.2358 26.856 20.3494 27.0009 20.4432C27.1458 20.5341 27.3063 20.6108 27.4824 20.6733C27.6586 20.7358 27.8361 20.7884 28.0151 20.831L28.8333 21.0355C29.1628 21.1122 29.4796 21.2159 29.7836 21.3466C30.0904 21.4773 30.3645 21.642 30.606 21.8409C30.8503 22.0398 31.0435 22.2798 31.1855 22.5611C31.3276 22.8423 31.3986 23.1719 31.3986 23.5497C31.3986 24.0611 31.2679 24.5114 31.0066 24.9006C30.7452 25.2869 30.3674 25.5895 29.873 25.8082C29.3816 26.0241 28.7864 26.1321 28.0875 26.1321C27.4086 26.1321 26.8191 26.027 26.3191 25.8168C25.8219 25.6065 25.4327 25.2997 25.1515 24.8963C24.873 24.4929 24.7225 24.0014 24.6998 23.4219H26.2551C26.2779 23.7259 26.3716 23.9787 26.5364 24.1804C26.7012 24.3821 26.9157 24.5327 27.1799 24.6321C27.4469 24.7315 27.7452 24.7812 28.0748 24.7812C28.4185 24.7812 28.7196 24.7301 28.9782 24.6278C29.2395 24.5227 29.4441 24.3778 29.5918 24.1932C29.7395 24.0057 29.8148 23.7869 29.8176 23.5369C29.8148 23.3097 29.748 23.1222 29.6174 22.9744C29.4867 22.8239 29.3034 22.6989 29.0676 22.5994C28.8347 22.4972 28.562 22.4062 28.2495 22.3267L27.2566 22.071C26.5378 21.8864 25.9696 21.6065 25.552 21.2315C25.1373 20.8537 24.9299 20.3523 24.9299 19.7273C24.9299 19.2131 25.0691 18.7628 25.3475 18.3764C25.6287 17.9901 26.0108 17.6903 26.4938 17.4773C26.9767 17.2614 27.5236 17.1534 28.1344 17.1534C28.7537 17.1534 29.2963 17.2614 29.7623 17.4773C30.231 17.6903 30.5989 17.9872 30.8659 18.3679C31.133 18.7457 31.2708 19.1804 31.2793 19.6719H29.758ZM34.2825 22.1648V26H32.7399V17.2727H34.2484V20.5668H34.3251C34.4785 20.1974 34.7157 19.9062 35.0368 19.6932C35.3606 19.4773 35.7725 19.3693 36.2725 19.3693C36.7271 19.3693 37.1234 19.4645 37.4615 19.6548C37.7995 19.8452 38.0609 20.1236 38.2456 20.4901C38.4331 20.8565 38.5268 21.304 38.5268 21.8324V26H36.9842V22.071C36.9842 21.6307 36.8706 21.2884 36.6433 21.044C36.4189 20.7969 36.1035 20.6733 35.6973 20.6733C35.4245 20.6733 35.1802 20.733 34.9643 20.8523C34.7512 20.9687 34.5836 21.1378 34.4615 21.3594C34.3422 21.581 34.2825 21.8494 34.2825 22.1648ZM41.9828 26.1321C41.568 26.1321 41.1944 26.0582 40.862 25.9105C40.5325 25.7599 40.2711 25.5384 40.0779 25.2457C39.8876 24.9531 39.7924 24.5923 39.7924 24.1634C39.7924 23.794 39.8606 23.4886 39.997 23.2472C40.1333 23.0057 40.3194 22.8125 40.5552 22.6676C40.791 22.5227 41.0566 22.4134 41.3521 22.3395C41.6504 22.2628 41.9586 22.2074 42.2768 22.1733C42.6603 22.1335 42.9714 22.098 43.21 22.0668C43.4487 22.0327 43.622 21.9815 43.7299 21.9134C43.8407 21.8423 43.8961 21.733 43.8961 21.5852V21.5597C43.8961 21.2386 43.801 20.9901 43.6106 20.8139C43.4203 20.6378 43.1461 20.5497 42.7882 20.5497C42.4103 20.5497 42.1106 20.6321 41.889 20.7969C41.6703 20.9616 41.5225 21.1562 41.4458 21.3807L40.0055 21.1761C40.1191 20.7784 40.3066 20.446 40.568 20.179C40.8294 19.9091 41.149 19.7074 41.5268 19.5739C41.9047 19.4375 42.3223 19.3693 42.7797 19.3693C43.095 19.3693 43.4089 19.4062 43.7214 19.4801C44.0339 19.554 44.3194 19.6761 44.5779 19.8466C44.8365 20.0142 45.0439 20.2429 45.2001 20.5327C45.3592 20.8224 45.4387 21.1847 45.4387 21.6193V26H43.9558V25.1009H43.9047C43.8109 25.2827 43.6788 25.4531 43.5083 25.6122C43.3407 25.7685 43.1291 25.8949 42.8734 25.9915C42.6206 26.0852 42.3237 26.1321 41.9828 26.1321ZM42.3833 24.9986C42.693 24.9986 42.9615 24.9375 43.1887 24.8153C43.416 24.6903 43.5907 24.5256 43.7129 24.321C43.8379 24.1165 43.9004 23.8935 43.9004 23.652V22.8807C43.8521 22.9205 43.7697 22.9574 43.6532 22.9915C43.5396 23.0256 43.4118 23.0554 43.2697 23.081C43.1277 23.1065 42.987 23.1293 42.8478 23.1491C42.7086 23.169 42.5879 23.1861 42.4856 23.2003C42.2555 23.2315 42.0495 23.2827 41.8677 23.3537C41.6859 23.4247 41.5424 23.5241 41.4373 23.652C41.3322 23.777 41.2797 23.9389 41.2797 24.1378C41.2797 24.4219 41.3833 24.6364 41.5907 24.7812C41.7981 24.9261 42.0623 24.9986 42.3833 24.9986ZM46.9899 26V19.4545H48.4856V20.5455H48.5538C48.6731 20.1676 48.8777 19.8764 49.1674 19.6719C49.46 19.4645 49.7939 19.3608 50.1689 19.3608C50.2541 19.3608 50.3493 19.3651 50.4544 19.3736C50.5623 19.3793 50.6518 19.3892 50.7228 19.4034V20.8224C50.6575 20.7997 50.5538 20.7798 50.4118 20.7628C50.2725 20.7429 50.1376 20.733 50.0069 20.733C49.7257 20.733 49.4728 20.794 49.2484 20.9162C49.0268 21.0355 48.8521 21.2017 48.7243 21.4148C48.5964 21.6278 48.5325 21.8736 48.5325 22.152V26H46.9899ZM54.3759 26.1278C53.7196 26.1278 53.1529 25.9915 52.6756 25.7188C52.2012 25.4432 51.8361 25.054 51.5804 24.5511C51.3248 24.0455 51.1969 23.4503 51.1969 22.7656C51.1969 22.0923 51.3248 21.5014 51.5804 20.9929C51.839 20.4815 52.1998 20.0838 52.6628 19.7997C53.1259 19.5128 53.6699 19.3693 54.2949 19.3693C54.6983 19.3693 55.079 19.4347 55.437 19.5653C55.7978 19.6932 56.1159 19.892 56.3915 20.1619C56.6699 20.4318 56.8887 20.7756 57.0478 21.1932C57.2069 21.608 57.2864 22.1023 57.2864 22.6761V23.1491H51.9213V22.1094H55.8077C55.8049 21.8139 55.7409 21.5511 55.6159 21.321C55.4909 21.0881 55.3162 20.9048 55.0918 20.7713C54.8702 20.6378 54.6117 20.571 54.3162 20.571C54.0009 20.571 53.7239 20.6477 53.4853 20.8011C53.2466 20.9517 53.0605 21.1506 52.927 21.3977C52.7963 21.642 52.7296 21.9105 52.7267 22.2031V23.1108C52.7267 23.4915 52.7963 23.8182 52.9355 24.0909C53.0748 24.3608 53.2694 24.5682 53.5194 24.7131C53.7694 24.8551 54.062 24.9261 54.3972 24.9261C54.6216 24.9261 54.8248 24.8949 55.0066 24.8324C55.1884 24.767 55.3461 24.6719 55.4796 24.5469C55.6131 24.4219 55.714 24.267 55.7821 24.0824L57.2225 24.2443C57.1316 24.625 56.9583 24.9574 56.7026 25.2415C56.4498 25.5227 56.1259 25.7415 55.731 25.8977C55.3361 26.0511 54.8844 26.1278 54.3759 26.1278ZM61.6362 26V17.2727H63.2172V24.6747H67.0609V26H61.6362ZM68.3649 26V19.4545H69.9075V26H68.3649ZM69.1404 18.5256C68.8961 18.5256 68.6859 18.4446 68.5098 18.2827C68.3336 18.1179 68.2456 17.9205 68.2456 17.6903C68.2456 17.4574 68.3336 17.2599 68.5098 17.098C68.6859 16.9332 68.8961 16.8509 69.1404 16.8509C69.3876 16.8509 69.5978 16.9332 69.7711 17.098C69.9473 17.2599 70.0353 17.4574 70.0353 17.6903C70.0353 17.9205 69.9473 18.1179 69.7711 18.2827C69.5978 18.4446 69.3876 18.5256 69.1404 18.5256ZM73.0364 22.1648V26H71.4938V19.4545H72.9682V20.5668H73.0449C73.1955 20.2003 73.4355 19.9091 73.7651 19.6932C74.0975 19.4773 74.508 19.3693 74.9966 19.3693C75.4483 19.3693 75.8418 19.4659 76.177 19.6591C76.5151 19.8523 76.7765 20.1321 76.9611 20.4986C77.1486 20.8651 77.2409 21.3097 77.2381 21.8324V26H75.6955V22.071C75.6955 21.6335 75.5819 21.2912 75.3546 21.044C75.1301 20.7969 74.8191 20.6733 74.4213 20.6733C74.1515 20.6733 73.9114 20.733 73.7012 20.8523C73.4938 20.9687 73.3304 21.1378 73.2111 21.3594C73.0946 21.581 73.0364 21.8494 73.0364 22.1648ZM80.2125 23.946L80.2083 22.0838H80.4554L82.8077 19.4545H84.6103L81.7168 22.6761H81.3972L80.2125 23.946ZM78.8063 26V17.2727H80.3489V26H78.8063ZM82.9142 26L80.7836 23.0213L81.8233 21.9347L84.7594 26H82.9142Z" fill="white"/>
<path d="M94.4853 15.9289C94.4853 15.038 95.5624 14.5919 96.1924 15.2218L102.263 21.2929C102.654 21.6834 102.654 22.3166 102.263 22.7071L96.1924 28.7782C95.5624 29.4081 94.4853 28.962 94.4853 28.0711V15.9289Z" fill="#101828"/>
</g>
<rect x="107" y="1" width="40" height="40" rx="20" fill="#F2F4F7"/>
<path d="M134.326 21.5062C134.53 21.3318 134.631 21.2446 134.669 21.1409C134.701 21.0498 134.701 20.9502 134.669 20.8591C134.631 20.7554 134.53 20.6682 134.326 20.4938L127.267 14.4433C126.917 14.1431 126.742 13.9931 126.594 13.9894C126.465 13.9862 126.342 14.0428 126.26 14.1427C126.167 14.2576 126.167 14.4883 126.167 14.9495V18.5289C124.388 18.8401 122.76 19.7415 121.55 21.0949C120.231 22.5704 119.501 24.48 119.5 26.4591V26.9691C120.374 25.9157 121.466 25.0638 122.701 24.4716C123.789 23.9495 124.965 23.6403 126.167 23.5588V27.0505C126.167 27.5117 126.167 27.7424 126.26 27.8573C126.342 27.9572 126.465 28.0138 126.594 28.0106C126.742 28.0069 126.917 27.8569 127.267 27.5567L134.326 21.5062Z" stroke="#667085" stroke-width="1.66667" stroke-linecap="round" stroke-linejoin="round"/>
<rect x="107" y="1" width="40" height="40" rx="20" stroke="#D0D5DD" stroke-linecap="round" stroke-linejoin="round"/>
<defs>
<filter id="filter0_dd_24736_105132" x="0" y="5" width="115" height="58" filterUnits="userSpaceOnUse" color-interpolation-filters="sRGB">
<feFlood flood-opacity="0" result="BackgroundImageFix"/>
<feColorMatrix in="SourceAlpha" type="matrix" values="0 0 0 0 0 0 0 0 0 0 0 0 0 0 0 0 0 0 127 0" result="hardAlpha"/>
<feMorphology radius="2" operator="erode" in="SourceAlpha" result="effect1_dropShadow_24736_105132"/>
<feOffset dy="4"/>
<feGaussianBlur stdDeviation="3"/>
<feColorMatrix type="matrix" values="0 0 0 0 0.0627451 0 0 0 0 0.0941176 0 0 0 0 0.156863 0 0 0 0.03 0"/>
<feBlend mode="normal" in2="BackgroundImageFix" result="effect1_dropShadow_24736_105132"/>
<feColorMatrix in="SourceAlpha" type="matrix" values="0 0 0 0 0 0 0 0 0 0 0 0 0 0 0 0 0 0 127 0" result="hardAlpha"/>
<feMorphology radius="4" operator="erode" in="SourceAlpha" result="effect2_dropShadow_24736_105132"/>
<feOffset dy="12"/>
<feGaussianBlur stdDeviation="8"/>
<feColorMatrix type="matrix" values="0 0 0 0 0.0627451 0 0 0 0 0.0941176 0 0 0 0 0.156863 0 0 0 0.08 0"/>
<feBlend mode="normal" in2="effect1_dropShadow_24736_105132" result="effect2_dropShadow_24736_105132"/>
<feBlend mode="normal" in="SourceGraphic" in2="effect2_dropShadow_24736_105132" result="shape"/>
</filter>
</defs>
</svg>
